<?xml version="1.0" encoding="utf-8"?>
<svg xmlns="http://www.w3.org/2000/svg" viewBox="0 0 50 50" fill="#ffffff"><path d="M 28.992188 9 C 23.926188 9 19.629328 11.6725 17.486328 16.0625 C 16.386328 15.3705 15.062625 15 13.640625 15 C 10.003625 15 7.2249531 17.766719 7.0019531 21.511719 C 2.5409531 23.020719 -5.9211895e-16 26.561078 0 31.330078 C 0 36.661078 4.3379219 41 9.6699219 41 L 15.050781 41 C 15.556314 46.035422 19.837148 50 25 50 C 30.162852 50 34.443686 46.035422 34.949219 41 L 41.097656 41 C 46.006656 41 50 37.007609 50 32.099609 C 50 27.370609 46.384375 23.179125 41.984375 22.578125 C 41.994375 22.380125 42 22.188 42 22 C 42 14.71 36.286187 9 28.992188 9 z M 25 32 C 29.4 32 33 35.6 33 40 C 33 44.4 29.4 48 25 48 C 20.6 48 17 44.4 17 40 C 17 35.6 20.6 32 25 32 z M 24 34 L 24 39.5 L 20.400391 42.199219 L 21.599609 43.800781 L 26 40.5 L 26 34 L 24 34 z" fill="#ffffff"/></svg>
